# xmcd
#
# Track frame offsets:
#	183
#	19000
#	35558
#	56685
#	82145
#	99755
#	113933
#	135755
#	163525
#	182413
#	197978
#	220195
#	234390
#	262840
#	291545
#	316193
#
# Disc length: 4514 seconds
#
# Revision: 6
# Processed by: cddbd v1.5.2PL0 Copyright (c) Steve Scherf et al.
# Submitted via: audiograbber 1.83.01
#
DISCID=d611a010
DTITLE=Thin Lizzy - Vagabonds Kings Warriors Angels [CD 4) - Angels
DYEAR=2001
DGENRE=Rock
TTITLE0=Dear Miss Lonely Hearts
TTITLE1=King's Call
TTITLE2=Chinatown
TTITLE3=Sugar Blues
TTITLE4=Killer On The Loose
TTITLE5=Don't Play Around
TTITLE6=Song For Jimi
TTITLE7=Renegade
TTITLE8=Hollywood (Down On Your Luck)
TTITLE9=Old Town
TTITLE10=Thunder And Lightning
TTITLE11=Cold Sweat
TTITLE12=The Sun Goes Down
TTITLE13=Sisters Of Mercy
TTITLE14=Phil Lynott - Nineteen
TTITLE15=Phil Lynott - A Night In The Life Of A Blues Singer
EXTD=
EXTT0=
EXTT1=
EXTT2=
EXTT3=
EXTT4=
EXTT5=
EXTT6=
EXTT7=
EXTT8=
EXTT9=
EXTT10=
EXTT11=
EXTT12=
EXTT13=
EXTT14=
EXTT15=
PLAYORDER=
